<svg xmlns="http://www.w3.org/2000/svg" width="128" height="128" viewBox="0 0 128 128" role="img" aria-label="Gianlu.dev">
  <defs>
    <linearGradient id="g" x1="0" y1="0" x2="1" y2="1">
      <stop offset="0" stop-color="#2563eb"/>
      <stop offset="1" stop-color="#60a5fa"/>
    </linearGradient>
  </defs>
  <rect x="10" y="10" width="108" height="108" rx="24" fill="url(#g)"/>
  <path d="M44 76c0-18 10-30 26-30 12 0 20 6 23 16h-12c-2-5-6-8-11-8-9 0-14 7-14 22s5 22 14 22c7 0 12-4 13-12H70V68h34v46H92v-8c-5 6-12 10-22 10-16 0-26-12-26-30Z" fill="#fff"/>
</svg>

